<svg width="127" height="48" viewBox="0 0 127 48" fill="none" xmlns="http://www.w3.org/2000/svg">
<rect width="127" height="48" rx="24" fill="#485C11"/>
<path d="M23.164 29V19.2H25.054V27.53H29.352V29H23.164ZM33.6386 29.168C32.9292 29.168 32.2992 29.0187 31.7486 28.72C31.2072 28.412 30.7826 27.9873 30.4746 27.446C30.1759 26.8953 30.0266 26.2607 30.0266 25.542C30.0266 24.8047 30.1759 24.156 30.4746 23.596C30.7826 23.0267 31.2072 22.5833 31.7486 22.266C32.2899 21.9393 32.9199 21.776 33.6386 21.776C34.3386 21.776 34.9499 21.93 35.4726 22.238C35.9952 22.546 36.4012 22.9613 36.6906 23.484C36.9799 24.0067 37.1246 24.5993 37.1246 25.262C37.1246 25.3553 37.1246 25.4627 37.1246 25.584C37.1246 25.696 37.1152 25.8127 37.0966 25.934H31.3706V24.786H35.2206C35.1926 24.3287 35.0292 23.9693 34.7306 23.708C34.4412 23.4467 34.0772 23.316 33.6386 23.316C33.3212 23.316 33.0272 23.3907 32.7566 23.54C32.4859 23.68 32.2712 23.8993 32.1126 24.198C31.9632 24.4967 31.8886 24.8747 31.8886 25.332V25.738C31.8886 26.1207 31.9586 26.4567 32.0986 26.746C32.2479 27.026 32.4532 27.2453 32.7146 27.404C32.9759 27.5533 33.2792 27.628 33.6246 27.628C33.9699 27.628 34.2546 27.5533 34.4786 27.404C34.7119 27.2547 34.8846 27.0633 34.9966 26.83H36.9286C36.7979 27.2687 36.5786 27.6653 36.2706 28.02C35.9626 28.3747 35.5846 28.6547 35.1366 28.86C34.6886 29.0653 34.1892 29.168 33.6386 29.168ZM40.7024 29.168C40.1144 29.168 39.6291 29.0747 39.2464 28.888C38.8638 28.692 38.5791 28.4353 38.3924 28.118C38.2151 27.7913 38.1264 27.432 38.1264 27.04C38.1264 26.6107 38.2338 26.2327 38.4484 25.906C38.6724 25.5793 39.0038 25.3227 39.4424 25.136C39.8904 24.9493 40.4504 24.856 41.1224 24.856H42.8724C42.8724 24.5107 42.8258 24.226 42.7324 24.002C42.6391 23.7687 42.4944 23.596 42.2984 23.484C42.1024 23.372 41.8411 23.316 41.5144 23.316C41.1598 23.316 40.8564 23.3953 40.6044 23.554C40.3618 23.7033 40.2124 23.9367 40.1564 24.254H38.3224C38.3691 23.75 38.5324 23.316 38.8124 22.952C39.1018 22.5787 39.4798 22.2893 39.9464 22.084C40.4224 21.8787 40.9498 21.776 41.5284 21.776C42.1911 21.776 42.7651 21.888 43.2504 22.112C43.7358 22.336 44.1091 22.658 44.3704 23.078C44.6318 23.498 44.7624 24.016 44.7624 24.632V29H43.1664L42.9564 27.922C42.8538 28.1087 42.7324 28.2767 42.5924 28.426C42.4524 28.5753 42.2891 28.706 42.1024 28.818C41.9158 28.93 41.7058 29.014 41.4724 29.07C41.2391 29.1353 40.9824 29.168 40.7024 29.168ZM41.1504 27.712C41.3931 27.712 41.6078 27.67 41.7944 27.586C41.9904 27.4927 42.1584 27.3713 42.2984 27.222C42.4384 27.0633 42.5458 26.886 42.6204 26.69C42.7044 26.4847 42.7604 26.2653 42.7884 26.032V26.018H41.3464C41.0571 26.018 40.8191 26.0553 40.6324 26.13C40.4551 26.1953 40.3244 26.2933 40.2404 26.424C40.1564 26.5547 40.1144 26.704 40.1144 26.872C40.1144 27.0587 40.1564 27.2127 40.2404 27.334C40.3244 27.4553 40.4458 27.5487 40.6044 27.614C40.7631 27.6793 40.9451 27.712 41.1504 27.712ZM46.1756 29V21.944H47.8556L48.0376 23.246C48.2056 22.938 48.4156 22.6767 48.6676 22.462C48.9289 22.2473 49.2229 22.0793 49.5496 21.958C49.8856 21.8367 50.2542 21.776 50.6556 21.776V23.778H50.0116C49.7316 23.778 49.4702 23.8107 49.2276 23.876C48.9942 23.9413 48.7889 24.0487 48.6116 24.198C48.4342 24.338 48.2989 24.534 48.2056 24.786C48.1122 25.038 48.0656 25.3553 48.0656 25.738V29H46.1756ZM51.5541 29V21.944H53.2201L53.3601 23.092C53.5747 22.7 53.8781 22.3827 54.2701 22.14C54.6714 21.8973 55.1474 21.776 55.6981 21.776C56.2861 21.776 56.7807 21.8973 57.1821 22.14C57.5834 22.3827 57.8867 22.7373 58.0921 23.204C58.3067 23.6707 58.4141 24.2447 58.4141 24.926V29H56.5381V25.108C56.5381 24.548 56.4167 24.1187 56.1741 23.82C55.9407 23.5213 55.5767 23.372 55.0821 23.372C54.7647 23.372 54.4801 23.4467 54.2281 23.596C53.9854 23.7453 53.7941 23.96 53.6541 24.24C53.5141 24.5107 53.4441 24.842 53.4441 25.234V29H51.5541ZM62.8316 29V19.2H65.0856L68.0816 25.318L71.0496 19.2H73.3036V29H71.4136V22.42L68.8236 27.628H67.3256L64.7216 22.42V29H62.8316ZM78.172 29.168C77.5 29.168 76.8933 29.014 76.352 28.706C75.82 28.3887 75.3953 27.9547 75.078 27.404C74.77 26.844 74.616 26.2047 74.616 25.486C74.616 24.7487 74.77 24.1047 75.078 23.554C75.3953 22.994 75.8247 22.56 76.366 22.252C76.9073 21.9347 77.514 21.776 78.186 21.776C78.8673 21.776 79.474 21.9347 80.006 22.252C80.5473 22.56 80.972 22.994 81.28 23.554C81.5973 24.1047 81.756 24.744 81.756 25.472C81.756 26.2 81.5973 26.844 81.28 27.404C80.972 27.9547 80.5473 28.3887 80.006 28.706C79.4647 29.014 78.8533 29.168 78.172 29.168ZM78.172 27.53C78.4893 27.53 78.7693 27.4553 79.012 27.306C79.264 27.1567 79.46 26.928 79.6 26.62C79.7493 26.312 79.824 25.9293 79.824 25.472C79.824 25.0147 79.7493 24.6367 79.6 24.338C79.46 24.03 79.264 23.8013 79.012 23.652C78.7693 23.4933 78.494 23.414 78.186 23.414C77.8873 23.414 77.612 23.4933 77.36 23.652C77.108 23.8013 76.9073 24.03 76.758 24.338C76.618 24.6367 76.548 25.0147 76.548 25.472C76.548 25.9293 76.618 26.312 76.758 26.62C76.9073 26.928 77.1033 27.1567 77.346 27.306C77.598 27.4553 77.8733 27.53 78.172 27.53ZM83.0349 29V21.944H84.7149L84.8969 23.246C85.0649 22.938 85.2749 22.6767 85.5269 22.462C85.7883 22.2473 86.0823 22.0793 86.4089 21.958C86.7449 21.8367 87.1136 21.776 87.5149 21.776V23.778H86.8709C86.5909 23.778 86.3296 23.8107 86.0869 23.876C85.8536 23.9413 85.6483 24.0487 85.4709 24.198C85.2936 24.338 85.1583 24.534 85.0649 24.786C84.9716 25.038 84.9249 25.3553 84.9249 25.738V29H83.0349ZM91.6921 29.168C90.9827 29.168 90.3527 29.0187 89.8021 28.72C89.2607 28.412 88.8361 27.9873 88.5281 27.446C88.2294 26.8953 88.0801 26.2607 88.0801 25.542C88.0801 24.8047 88.2294 24.156 88.5281 23.596C88.8361 23.0267 89.2607 22.5833 89.8021 22.266C90.3434 21.9393 90.9734 21.776 91.6921 21.776C92.3921 21.776 93.0034 21.93 93.5261 22.238C94.0487 22.546 94.4547 22.9613 94.7441 23.484C95.0334 24.0067 95.1781 24.5993 95.1781 25.262C95.1781 25.3553 95.1781 25.4627 95.1781 25.584C95.1781 25.696 95.1687 25.8127 95.1501 25.934H89.4241V24.786H93.2741C93.2461 24.3287 93.0827 23.9693 92.7841 23.708C92.4947 23.4467 92.1307 23.316 91.6921 23.316C91.3747 23.316 91.0807 23.3907 90.8101 23.54C90.5394 23.68 90.3247 23.8993 90.1661 24.198C90.0167 24.4967 89.9421 24.8747 89.9421 25.332V25.738C89.9421 26.1207 90.0121 26.4567 90.1521 26.746C90.3014 27.026 90.5067 27.2453 90.7681 27.404C91.0294 27.5533 91.3327 27.628 91.6781 27.628C92.0234 27.628 92.3081 27.5533 92.5321 27.404C92.7654 27.2547 92.9381 27.0633 93.0501 26.83H94.9821C94.8514 27.2687 94.6321 27.6653 94.3241 28.02C94.0161 28.3747 93.6381 28.6547 93.1901 28.86C92.7421 29.0653 92.2427 29.168 91.6921 29.168Z" fill="white"/>
<path d="M103.01 25.9877V22.0462L103.649 22.0858L98.7352 27.0056L98 26.2705L102.914 21.3563L102.965 21.9953H99.0066V20.9943L104 21.0056V25.9877H103.01Z" fill="white"/>
</svg>
